<svg width="1304" height="989" viewBox="0 0 1304 989" fill="none" xmlns="http://www.w3.org/2000/svg">
<path d="M1 -122C2.5 -77.5 44.6 27.6 201 92C396.5 172.5 135.5 266.5 147 365.5C158.5 464.5 269 465 363.5 483.5C458 502 626 569 687.5 816.5C749 1064 1165.5 1038.5 1165.5 774.5C1177.5 628.5 1237.5 636.5 1303.5 629.5" stroke="black"/>
<path d="M203.776 96.2025C203.776 96.2025 203.15 114.813 208.339 122.291C213.528 129.77 226.692 129.23 226.692 129.23C226.692 129.23 213.539 128.46 208.221 135.846C202.902 143.233 203.203 161.852 203.203 161.852C203.203 161.852 203.828 143.241 198.639 135.763C193.45 128.285 180.286 128.825 180.286 128.825C180.286 128.825 193.439 129.594 198.758 122.208C204.076 114.821 203.776 96.2025 203.776 96.2025Z" fill="black"/>
<path d="M227.094 148.086C227.094 148.086 226.829 155.987 229.032 159.162C231.235 162.337 236.824 162.108 236.824 162.108C236.824 162.108 231.239 161.781 228.981 164.917C226.723 168.053 226.851 175.958 226.851 175.958C226.851 175.958 227.116 168.057 224.913 164.882C222.711 161.707 217.122 161.936 217.122 161.936C217.122 161.936 222.706 162.263 224.964 159.127C227.222 155.991 227.094 148.086 227.094 148.086Z" fill="black"/>
<path d="M180.567 147.064C180.567 147.064 180.368 152.988 182.02 155.368C183.672 157.749 187.862 157.577 187.862 157.577C187.862 157.577 183.675 157.332 181.982 159.683C180.29 162.034 180.385 167.96 180.385 167.96C180.385 167.96 180.584 162.037 178.933 159.656C177.281 157.276 173.091 157.448 173.091 157.448C173.091 157.448 177.277 157.693 178.97 155.342C180.663 152.991 180.567 147.064 180.567 147.064Z" fill="black"/>
<path d="M1227.78 661.202C1227.78 661.202 1227.15 679.813 1232.34 687.291C1237.53 694.77 1250.69 694.23 1250.69 694.23C1250.69 694.23 1237.54 693.46 1232.22 700.846C1226.9 708.233 1227.2 726.852 1227.2 726.852C1227.2 726.852 1227.83 708.241 1222.64 700.763C1217.45 693.285 1204.29 693.825 1204.29 693.825C1204.29 693.825 1217.44 694.594 1222.76 687.208C1228.08 679.821 1227.78 661.202 1227.78 661.202Z" fill="black"/>
<path d="M1204.57 712.064C1204.57 712.064 1204.37 717.988 1206.02 720.368C1207.67 722.749 1211.86 722.577 1211.86 722.577C1211.86 722.577 1207.68 722.332 1205.98 724.683C1204.29 727.034 1204.39 732.96 1204.39 732.96C1204.39 732.96 1204.58 727.037 1202.93 724.656C1201.28 722.276 1197.09 722.448 1197.09 722.448C1197.09 722.448 1201.28 722.693 1202.97 720.342C1204.66 717.991 1204.57 712.064 1204.57 712.064Z" fill="black"/>
</svg>
