<svg width="1137" height="1109" viewBox="0 0 1137 1109" fill="none" xmlns="http://www.w3.org/2000/svg">
<g filter="url(#filter0_f_227_22)">
<path d="M755.457 331.594C779.931 334.896 802.211 352.292 824.655 368.834C848.926 386.723 875.989 399.426 893.148 433.078C910.67 467.442 918.281 513.321 921.155 558.093C923.973 602.011 919.658 646.684 909.475 687.486C899.703 726.642 880.099 754.928 863.866 787.639C846.807 822.012 835.603 868.558 810.934 886.049C786.25 903.55 758.06 887.584 731.471 881.508C706.13 875.717 681.259 868.554 657.941 851.089C633.235 832.583 604.403 816.02 591.365 776.563C578.262 736.907 589.527 687.847 589.059 642.621C588.647 602.813 585.754 564.177 588.761 524.678C592.158 480.04 589.796 428.725 607.887 395.229C625.958 361.774 657.045 361.052 683.241 349.756C707.105 339.465 730.882 328.278 755.457 331.594Z" fill="#FFB506"/>
</g>
<g filter="url(#filter1_f_227_22)">
<path d="M549.864 291.73C591.274 296.244 627.105 319.072 660.771 343.61C695.862 369.186 729.497 397.318 748.386 436.423C768.846 478.781 779.139 526.345 771.454 572.756C763.402 621.393 745.483 673.834 704.535 701.27C664.471 728.113 611.449 712.523 563.228 712.27C523.949 712.064 486.309 710.349 448.437 699.926C405.801 688.192 356.971 682.418 329.324 647.897C301.317 612.926 307.644 563.383 303.363 518.78C298.803 471.26 277.926 418.793 303.464 378.464C328.991 338.152 385.206 334.313 430.206 318.473C469.555 304.622 508.395 287.209 549.864 291.73Z" fill="#FF782C"/>
</g>
<defs>
<filter id="filter0_f_227_22" x="370" y="116" width="767" height="993" filterUnits="userSpaceOnUse" color-interpolation-filters="sRGB">
<feFlood flood-opacity="0" result="BackgroundImageFix"/>
<feBlend mode="normal" in="SourceGraphic" in2="BackgroundImageFix" result="shape"/>
<feGaussianBlur stdDeviation="107.5" result="effect1_foregroundBlur_227_22"/>
</filter>
<filter id="filter1_f_227_22" x="0" y="0" width="1065" height="1008" filterUnits="userSpaceOnUse" color-interpolation-filters="sRGB">
<feFlood flood-opacity="0" result="BackgroundImageFix"/>
<feBlend mode="normal" in="SourceGraphic" in2="BackgroundImageFix" result="shape"/>
<feGaussianBlur stdDeviation="145.5" result="effect1_foregroundBlur_227_22"/>
</filter>
</defs>
</svg>
